<?xml version="1.0" encoding="UTF-8"?>
<svg id="Layer_2" data-name="Layer 2" xmlns="http://www.w3.org/2000/svg" viewBox="0 0 895.27 203.05">
  <defs>
    <style>
      .cls-1 {
        fill: #dbdfd8;
      }
    </style>
  </defs>
  <g id="_4-bg" data-name="4-bg">
    <g>
      <g>
        <path class="cls-1" d="m35.95,31.59v30.72h68.42v31.38H35.95v52.29H0V0h112.86v31.59H35.95Z"/>
        <path class="cls-1" d="m261.89,145.98h-43.36l-44.01-50.11h-10.46v50.11h-35.95V0h73.86c15.83,0,28.54,4.39,38.13,13.18,9.59,8.79,14.38,20.3,14.38,34.53,0,11.91-3.41,21.97-10.24,30.18-6.83,8.21-16.2,13.62-28.11,16.23l45.76,51.86Zm-97.83-80.18h33.99c6.39,0,11.51-1.6,15.36-4.79,3.85-3.19,5.77-7.48,5.77-12.85s-1.93-9.44-5.77-12.64c-3.85-3.19-8.97-4.79-15.36-4.79h-33.99v35.08Z"/>
        <path class="cls-1" d="m421.6,145.98h-38.35l-10.24-26.58h-61.44l-10.24,26.58h-38.57L323.77,0h36.82l61.01,145.98Zm-60.57-57.52l-18.74-47.93-18.52,47.93h37.26Z"/>
        <path class="cls-1" d="m600.48,0v145.98h-34.86v-72.77l-38.13,72.77h-22.22l-38.35-73.21v73.21h-34.86V0h35.3l49.02,90.42L565.4,0h35.08Z"/>
        <path class="cls-1" d="m737.3,115.04v30.94h-113.73V0h113.08v30.94h-77.13v27.45h70.81v29.2h-70.81v27.45h77.78Z"/>
        <path class="cls-1" d="m757.57,0h57.74c23.97,0,43.28,6.72,57.96,20.15,14.67,13.44,22.01,31.05,22.01,52.84s-7.34,39.4-22.01,52.84c-14.67,13.44-33.99,20.15-57.96,20.15h-57.74V0Zm35.95,114.82h20.48c13.65,0,24.58-3.81,32.79-11.44,8.2-7.63,12.31-17.76,12.31-30.4s-4.11-22.77-12.31-30.39c-8.21-7.63-19.14-11.44-32.79-11.44h-20.48v83.67Z"/>
      </g>
      <g>
        <path class="cls-1" d="m141.64,167.55c3.72,0,6.83.87,9.33,2.61,2.5,1.74,4.07,4.15,4.72,7.23l-8.22,1.67c-.3-1.52-1.01-2.7-2.13-3.53-1.12-.83-2.38-1.24-3.8-1.24s-2.45.33-3.3.99c-.85.66-1.27,1.48-1.27,2.46,0,1.49.91,2.43,2.74,2.84l7.05,1.57c6.22,1.39,9.33,4.68,9.33,9.89,0,3.48-1.34,6.19-4.01,8.12-2.67,1.93-6,2.89-9.99,2.89s-7.31-.9-10.07-2.71c-2.76-1.81-4.35-4.34-4.79-7.58l8.62-1.67c.81,3.35,3.04,5.02,6.7,5.02,1.55,0,2.78-.32,3.68-.96.9-.64,1.34-1.49,1.34-2.54,0-.81-.23-1.45-.68-1.93s-1.28-.83-2.46-1.07l-7.1-1.52c-6.09-1.39-9.13-4.67-9.13-9.84,0-3.28,1.23-5.88,3.7-7.81,2.47-1.93,5.71-2.89,9.74-2.89Z"/>
        <path class="cls-1" d="m183.99,187.79l8.22,1.78c-.78,4.19-2.72,7.49-5.83,9.89-3.11,2.4-6.88,3.6-11.31,3.6-5.04,0-9.31-1.71-12.81-5.12-3.5-3.42-5.25-7.62-5.25-12.63s1.75-9.17,5.25-12.6c3.5-3.43,7.77-5.15,12.81-5.15,4.26,0,7.97,1.18,11.13,3.55,3.16,2.37,5.15,5.53,5.96,9.49l-8.22,2.08c-.51-2.47-1.55-4.33-3.12-5.58-1.57-1.25-3.49-1.88-5.76-1.88-2.71,0-5,.96-6.87,2.89-1.88,1.93-2.82,4.33-2.82,7.2s.94,5.28,2.82,7.23c1.88,1.95,4.17,2.92,6.87,2.92,2.23,0,4.13-.64,5.71-1.93,1.57-1.28,2.65-3.2,3.22-5.73Z"/>
        <path class="cls-1" d="m225.54,202.29h-10.09l-10.25-11.67h-2.43v11.67h-8.37v-33.98h17.2c3.69,0,6.64,1.02,8.88,3.07,2.23,2.05,3.35,4.73,3.35,8.04,0,2.77-.79,5.12-2.38,7.03-1.59,1.91-3.77,3.17-6.54,3.78l10.65,12.07Zm-22.77-18.67h7.91c1.49,0,2.68-.37,3.58-1.12.9-.74,1.34-1.74,1.34-2.99s-.45-2.2-1.34-2.94c-.9-.74-2.09-1.12-3.58-1.12h-7.91v8.17Z"/>
        <path class="cls-1" d="m252.77,195.09v7.2h-26.48v-33.98h26.33v7.2h-17.96v6.39h16.48v6.8h-16.48v6.39h18.11Z"/>
        <path class="cls-1" d="m281.94,195.09v7.2h-26.48v-33.98h26.33v7.2h-17.96v6.39h16.48v6.8h-16.48v6.39h18.11Z"/>
        <path class="cls-1" d="m317.09,168.31v33.98h-6.9l-17.19-19.68v19.68h-8.37v-33.98h6.95l17.2,20.29v-20.29h8.32Z"/>
        <path class="cls-1" d="m333.83,167.55c3.72,0,6.83.87,9.33,2.61,2.5,1.74,4.07,4.15,4.72,7.23l-8.22,1.67c-.3-1.52-1.01-2.7-2.13-3.53-1.12-.83-2.38-1.24-3.8-1.24s-2.45.33-3.3.99c-.85.66-1.27,1.48-1.27,2.46,0,1.49.91,2.43,2.74,2.84l7.05,1.57c6.22,1.39,9.33,4.68,9.33,9.89,0,3.48-1.34,6.19-4.01,8.12-2.67,1.93-6,2.89-9.99,2.89s-7.31-.9-10.07-2.71c-2.76-1.81-4.35-4.34-4.79-7.58l8.62-1.67c.81,3.35,3.04,5.02,6.7,5.02,1.55,0,2.78-.32,3.68-.96.9-.64,1.34-1.49,1.34-2.54,0-.81-.23-1.45-.68-1.93s-1.28-.83-2.46-1.07l-7.1-1.52c-6.09-1.39-9.13-4.67-9.13-9.84,0-3.28,1.23-5.88,3.7-7.81,2.47-1.93,5.71-2.89,9.74-2.89Z"/>
        <path class="cls-1" d="m381.71,168.31v33.98h-8.32v-13.44h-14.3v13.44h-8.37v-33.98h8.37v13.24h14.3v-13.24h8.32Z"/>
        <path class="cls-1" d="m389.19,172.72c3.5-3.45,7.79-5.17,12.86-5.17s9.36,1.72,12.86,5.17c3.5,3.45,5.25,7.66,5.25,12.63s-1.75,9.12-5.25,12.55c-3.5,3.43-7.79,5.15-12.86,5.15s-9.36-1.72-12.86-5.15c-3.5-3.43-5.25-7.62-5.25-12.55s1.75-9.18,5.25-12.63Zm5.91,19.81c1.86,1.91,4.18,2.87,6.95,2.87s5.09-.96,6.95-2.87c1.86-1.91,2.79-4.3,2.79-7.18s-.93-5.33-2.79-7.25c-1.86-1.93-4.18-2.89-6.95-2.89s-5.09.96-6.95,2.89c-1.86,1.93-2.79,4.35-2.79,7.25s.93,5.27,2.79,7.18Z"/>
        <path class="cls-1" d="m449.38,175.61h-11.01v26.68h-8.32v-26.68h-11.01v-7.3h30.33v7.3Z"/>
        <path class="cls-1" d="m485.85,187.79l8.22,1.78c-.78,4.19-2.72,7.49-5.83,9.89-3.11,2.4-6.88,3.6-11.31,3.6-5.04,0-9.31-1.71-12.81-5.12-3.5-3.42-5.25-7.62-5.25-12.63s1.75-9.17,5.25-12.6c3.5-3.43,7.77-5.15,12.81-5.15,4.26,0,7.97,1.18,11.13,3.55,3.16,2.37,5.15,5.53,5.96,9.49l-8.22,2.08c-.51-2.47-1.55-4.33-3.12-5.58-1.57-1.25-3.49-1.88-5.76-1.88-2.71,0-5,.96-6.87,2.89-1.88,1.93-2.82,4.33-2.82,7.2s.94,5.28,2.82,7.23c1.88,1.95,4.17,2.92,6.87,2.92,2.23,0,4.13-.64,5.71-1.93,1.57-1.28,2.65-3.2,3.22-5.73Z"/>
        <path class="cls-1" d="m500.33,172.72c3.5-3.45,7.79-5.17,12.86-5.17s9.36,1.72,12.86,5.17c3.5,3.45,5.25,7.66,5.25,12.63s-1.75,9.12-5.25,12.55c-3.5,3.43-7.79,5.15-12.86,5.15s-9.36-1.72-12.86-5.15c-3.5-3.43-5.25-7.62-5.25-12.55s1.75-9.18,5.25-12.63Zm5.91,19.81c1.86,1.91,4.18,2.87,6.95,2.87s5.09-.96,6.95-2.87c1.86-1.91,2.79-4.3,2.79-7.18s-.93-5.33-2.79-7.25c-1.86-1.93-4.18-2.89-6.95-2.89s-5.09.96-6.95,2.89c-1.86,1.93-2.79,4.35-2.79,7.25s.93,5.27,2.79,7.18Z"/>
        <path class="cls-1" d="m572.68,168.31v33.98h-8.12v-16.94l-8.88,16.94h-5.17l-8.93-17.04v17.04h-8.12v-33.98h8.22l11.41,21.05,11.41-21.05h8.17Z"/>
        <path class="cls-1" d="m615.24,168.31v33.98h-8.12v-16.94l-8.88,16.94h-5.17l-8.93-17.04v17.04h-8.12v-33.98h8.22l11.41,21.05,11.41-21.05h8.17Z"/>
        <path class="cls-1" d="m648.97,168.31v18.67c0,4.87-1.38,8.77-4.13,11.69-2.76,2.93-6.4,4.39-10.93,4.39s-8.36-1.46-11.18-4.39c-2.82-2.92-4.24-6.82-4.24-11.69v-18.67h8.37v18.67c0,2.57.64,4.61,1.93,6.11,1.28,1.5,2.99,2.26,5.12,2.26s3.65-.75,4.87-2.26,1.83-3.54,1.83-6.11v-18.67h8.37Z"/>
        <path class="cls-1" d="m684.68,168.31v33.98h-6.9l-17.19-19.68v19.68h-8.37v-33.98h6.95l17.2,20.29v-20.29h8.32Z"/>
        <path class="cls-1" d="m700.91,175.61v19.38h6.44v7.3h-21.2v-7.3h6.44v-19.38h-6.44v-7.3h21.2v7.3h-6.44Z"/>
        <path class="cls-1" d="m737.18,175.61h-11.01v26.68h-8.32v-26.68h-11.01v-7.3h30.33v7.3Z"/>
        <path class="cls-1" d="m757.67,191.64v10.65h-8.52v-10.55l-13.14-23.43h9.13l8.37,14.91,8.27-14.91h9.33l-13.44,23.33Z"/>
      </g>
    </g>
  </g>
</svg>