<svg xmlns="http://www.w3.org/2000/svg" viewBox="0 0 359.18 111.85"><defs><style>.cls-1{fill:#9a9a9a;}</style></defs><g id="Layer_2" data-name="Layer 2"><g id="Layer_1-2" data-name="Layer 1"><path class="cls-1" d="M26.45,41.91V53.19H51.57V64.71H26.45v19.2H13.25V30.31H54.69v11.6Z"/><path class="cls-1" d="M110.52,83.91H94.6L78.44,65.51H74.6v18.4H61.4V30.31H88.52q8.72,0,14,4.84a16.41,16.41,0,0,1,5.28,12.68A16.71,16.71,0,0,1,104,58.91a17.93,17.93,0,0,1-10.32,6ZM74.6,54.47H87.08a8.5,8.5,0,0,0,5.64-1.76A5.82,5.82,0,0,0,94.84,48a5.75,5.75,0,0,0-2.12-4.64,8.55,8.55,0,0,0-5.64-1.76H74.6Z"/><path class="cls-1" d="M170.54,83.91H156.45l-3.76-9.76H130.13l-3.76,9.76H112.21l22.4-53.6h13.52ZM148.29,62.79l-6.88-17.6-6.8,17.6Z"/><path class="cls-1" d="M237.19,30.31v53.6h-12.8V57.19l-14,26.72h-8.16L188.15,57V83.91h-12.8V30.31h13l18,33.2,18-33.2Z"/><path class="cls-1" d="M288.57,72.55V83.91H246.81V30.31h41.52V41.67H260V51.75h26V62.47H260V72.55Z"/><path class="cls-1" d="M297.71,30.31h21.2q13.2,0,21.28,7.4t8.08,19.4q0,12-8.08,19.4t-21.28,7.4h-21.2Zm13.2,42.16h7.52q7.51,0,12-4.2A14.52,14.52,0,0,0,335,57.11,14.52,14.52,0,0,0,330.47,46q-4.52-4.2-12-4.2h-7.52Z"/><path class="cls-1" d="M359.18,111.85H0V0H359.18ZM4.84,107h349.5V4.84H4.84Z"/></g></g></svg>